<svg version="1" xmlns="http://www.w3.org/2000/svg" width="682.667" height="682.667" viewBox="0 0 512.000000 512.000000"><path d="M249.7.6c-.1.1-5.1.4-11.2.7-53.4 3-105.8 24.6-149.9 61.7-3.7 3.1-18.9 18.3-23.6 23.6-27.5 30.7-47.8 69.3-57.4 108.9-13.4 55.3-7.6 115.7 15.8 166 5 10.9 15.9 30.5 19.9 35.9 4.6 6.3 14.3 19.4 15.1 20.3.6.6 2.6 2.9 4.4 5.1 3.4 4.1 21.2 22.4 21.2 21.7 0-.2 1.3.9 2.8 2.3 11.7 11.3 31.8 25.2 51.6 35.7 17.3 9.2 47.8 20.2 63.1 22.9 1.7.2 6.6 1.1 11 2 14.3 2.6 21.6 3.1 44 3.1 19.2 0 30.7-.7 38-2.1 1.1-.2 3.4-.6 5-.9 1.7-.3 5.3-1 8-1.5 2.8-.6 6.1-1.2 7.5-1.5 1.4-.3 7.2-1.9 12.9-3.6 35.3-10.5 67.1-27.7 94.4-51.2 7.7-6.5 23.7-22.4 28.2-27.8 8.9-10.9 11.7-14.6 18.5-24.8 21.2-31.7 36.2-70.7 40.6-105.6.3-2.8.8-6.1 1-7.5.9-5.1 1.2-43.8.4-51.5-1.2-11.4-2.4-19.6-3.4-24-.2-.6-.6-2.8-1-5-2.2-11.5-8.5-31.9-14.3-46-5.5-13.3-18.8-38-21.8-40.5-.8-.7-1.5-1.7-1.5-2.3 0-1.3-8.8-13.2-16.9-22.7-10.6-12.6-21.5-23.5-32-32-2.4-1.9-4.9-4.1-5.6-4.8-.8-.6-1.8-1.2-2.4-1.2-.6 0-1.1-.4-1.1-.8 0-1-19.6-14.3-28.5-19.3-6.2-3.6-25.1-12.9-26-12.9-.3 0-2.4-.9-4.8-1.9-13.8-6.4-43.2-14-63.5-16.5-10.7-1.4-37.5-2.7-38.5-2zM274 27.4c13.8 1.1 31.9 4 40.5 6.6 23 6.9 39.1 13.5 54.5 22.3 9.1 5.2 22.8 14.2 27.2 17.9 1.4 1.3 5 4.2 8 6.5 7.5 6 24.3 23.4 31.7 32.8 10.7 13.8 13.1 17.1 13.1 18.5 0 .5.5 1 1 1 .6 0 1 .6 1 1.4 0 .8.3 1.6.8 1.8 1.2.5 11.2 19.7 16 30.8 6.8 15.5 13.2 39.1 15.8 57.4 1.8 13 2.4 45.2 1 52.6-.4 1.9-.7 4.2-.8 5-.2 10.8-8.6 44.7-14.3 57.5-.8 1.9-2.2 5.2-3.1 7.2-3.5 8.1-5 11.1-9.9 19.9-4.4 7.7-11.1 18.4-13.7 21.9-10.4 13.6-12.6 16.2-23.8 27.6-33.3 33.8-77 56.8-123.5 64.9-17.9 3.1-36.5 4-57.8 2.6-4.9-.3-9.6-.7-10.5-1-.9-.3-3.7-.7-6.2-1-13.4-1.6-34.7-7.5-52-14.4-33.8-13.4-68.9-40-92.2-69.7-9.7-12.4-8.7-11-12.8-17.5-1.9-3-3.8-5.6-4.2-5.8-.5-.2-.8-.8-.8-1.3s-1.1-2.7-2.5-4.9-2.5-4.6-2.5-5.5c0-.8-.4-1.5-.8-1.5-.5 0-1.8-2.1-3-4.7-1.1-2.7-3.4-7.8-5-11.4-6.3-14.1-11.7-32.5-14.7-49.9-.8-5.2-1.9-11.6-2.4-14.1-1-6-1.3-44.9-.4-44.9.5 0 .8-2.1.7-4.8 0-2.6.3-6.3.7-8.2.4-1.9 1-5.5 1.4-8 .3-2.5.8-5.3 1.1-6.2.3-.9.6-2.5.8-3.5.2-1 1.4-5.4 2.6-9.8 1.2-4.4 2.4-9 2.7-10.3.3-1.2.8-2.2 1.2-2.2.4 0 .7-.9.8-2 .6-8.3 21.8-49 30.9-59.7 1.1-1.1 2.6-3.1 3.4-4.4 6-9 21.8-25.4 35.8-37.1 9.8-8.3 32.5-23.8 34.8-23.8.7 0 1.4-.4 1.6-.8.3-1 17.9-9.5 24.3-11.9 2.2-.8 4.9-1.9 6-2.4 4.6-2 21.7-7.1 28-8.4 14.9-3 26.7-4.7 36-5.2 6.1-.3 11.1-.6 11.2-.7.4-.3 15.4.3 22.3.8z"/><path d="M203.8 68.7c-1 .3-2.5 2.6-3.6 5.5-1.7 4.7-2.3 5.3-7.1 7-4 1.5-5.1 2.4-5.1 4.1 0 3.2 1 4.1 6 6 4 1.5 4.7 2.2 6.3 6.6 2 5.6 4.7 7.1 7.8 4 1-1 1.9-2.6 1.9-3.4 0-2.9 3.2-6.4 6.8-7.6 4.5-1.4 5.1-1.9 5.7-4.8.4-2-.4-2.6-5.3-4.8-5.3-2.2-5.9-2.9-7.5-7.3-1.7-4.9-2.9-5.9-5.9-5.3zM126.3 112.3c-1.3.6-2.8 3.4-4.4 8.2-2.3 7-2.6 7.5-6.7 9-2.3.9-4.8 1.8-5.5 2-4.4 1.1-6 2.1-6.8 4.1-1.5 4.2.4 7 6.6 9.3 3.1 1.2 5.9 2.1 6.4 2.1 1.6 0 4.1 3.8 5.8 8.6 2.4 7.2 4.1 9.4 7.2 9.4 3.2 0 7.1-3.7 7.1-6.8 0-1.1.4-2.3.9-2.6.4-.3 1.1-1.8 1.4-3.4.6-3 2.1-4 10.9-7.2 4.8-1.8 5.8-2.5 6.3-5.1 1-4.5-1.3-7.1-8.4-9.3-3.4-1.1-6.6-2.4-7-3-.5-.6-1.9-3.8-3.2-7.1-3.3-9.1-5.3-10.6-10.6-8.2zM243 134.7c-3 .7-6.6 1.5-8 1.7-2.5.3-3.7.7-9.5 2.9-1.6.7-3.2 1.2-3.5 1.2-.3 0-3.2 1.4-6.5 2.9-3.3 1.6-6.2 3-6.5 3-3.1.5-24.1 16.6-29 22.2-9.4 10.8-15.7 19.9-19.6 28.4-1.9 4.2-2.4 4.6-6 4.8-8.4.4-16 1.5-17.6 2.3-1 .6-1.8.8-1.8.5 0-.8-10.1 2.9-16 5.9-6.4 3.2-15 9.4-20 14.5-5.2 5.2-11 12.5-11 13.9 0 .6-.3 1.1-.8 1.1-.6 0-6.3 11.1-6.8 13 0 .3-.3 1.2-.6 2-3.6 9.3-4.2 13.6-4.2 29 0 8.9.5 14.5 1.8 19.5 4.6 17.3 15.6 33.5 30 44.1 3.4 2.4 6.7 4.9 7.3 5.4.7.6 1.5 1.1 1.8 1.1 2.3.3 4.5 1.3 4.5 2 0 .5.3.8.8.7.4-.2 2.1.2 3.7.9 3.5 1.3 6.4 2.3 6.8 2.2.1 0 1.4.4 2.9 1 5.8 2.2 18.5 2.4 126.8 2.4 124.1 0 122.5.1 135.8-4.8 8.2-3 12.4-5.2 19.7-10.6 7.9-5.8 18.5-16.7 18.5-18.9 0-.5.4-1 .9-1s1.1-.8 1.4-1.8c.7-2.2 3.9-7.5 5-8.3.5-.3.8-.8.7-1-.2-.5.9-3.9 2.1-6.4.6-1.2 1.2-3 1.4-4 .2-1.1.4-2 .5-2 .1 0 .3-.7.5-1.5s.6-2.9 1-4.5c1.4-5.5 1.3-26 0-31.8-5.2-22.5-16.5-39.2-34.6-51.2-8.2-5.5-21.9-11.4-26.4-11.5-1.2 0-23.5 26.4-23.5 27.7 0 .5 3.4.9 7.6 1 16 .4 29.7 8 39.5 22 1.6 2.3 2.9 4.4 2.9 4.6 0 .3.8 2.2 1.7 4.3 1.7 3.9 1.9 4.8 2.5 9.1.1 1.3.5 2.3.9 2.3 1 0 .2 17.9-.9 19.3-.6.6-1 1.6-1.1 2.2 0 2.1-2.4 9.5-3 9.5-.3 0-1.2 1.3-1.9 3-1.7 3.8-10.7 13.1-15.8 16.2-5.7 3.5-13.3 6.5-18.4 7.2-5.6.8-228.6.8-232 .1-1.4-.3-3.6-.8-5-1.1-4.7-.8-15-6.6-20-11.1-16.9-15.2-21.6-40.3-11.4-60.5 3-6 4.6-8 10.7-13.9 12.3-11.9 28-15.8 48-11.8 5.1 1 9.2 1.7 9.3 1.6.1-.1 1.4-4 2.8-8.6 8.5-26.3 21.1-42.2 42.8-53.9 17.8-9.7 44.3-12.5 61-6.6 2.1.7 4 1.4 4.3 1.4 3.3.4 19.3 8.4 22.7 11.3 1.4 1.2 4.5 3.7 6.7 5.5 4.8 3.9 5.1 3.1-5.6 14.8-3.9 4.3-8 8.8-9 10-6.7 7.7-13.2 15.1-15.5 17.6-1.6 1.6-2.8 3.1-2.8 3.3 0 .2-1.2 1.7-2.7 3.3-3 3.1-7.8 8.4-15.7 17.5-2.8 3.2-5.2 5.7-5.5 5.7-.4 0-2.6-1.9-5.1-4.1-2.5-2.3-7-6.4-10-9.1-8.5-7.7-12.6-9.2-20.7-7.3-6 1.3-11.6 8.9-11.5 15.6.1 7.2 2 9.7 19.2 24.9.9.8 5.1 4.6 9.2 8.3 11.5 10.3 12 10.7 14.2 11.2 4.7 1.1 7.2 1.1 10.7.1 3.7-1.1 5.6-3.2 33.4-36.1 1.9-2.2 4.4-5.1 5.6-6.5 1.1-1.4 4-4.7 6.3-7.4 4.4-5.3 17.2-20.2 21.5-25.1 1.4-1.7 4.8-5.7 7.6-9 2.7-3.3 5.2-6.2 5.5-6.5.3-.3 2.8-3.2 5.5-6.5 2.8-3.3 5.6-6.6 6.3-7.3 1.7-1.8 1.5-3.3-.8-6.2-1.1-1.4-2-3.1-2-3.8 0-.6-.3-1.2-.8-1.2-.4 0-1.4-1.1-2.2-2.4-4.7-7.6-26.4-27.6-29.9-27.6-.6 0-1.1-.4-1.1-.8 0-1.5-19.2-10-28.5-12.8-4.9-1.4-10.9-2.7-13.2-2.7-2.4-.1-4.3-.5-4.3-.8 0-1.2-28.5-.5-34 .8z"/></svg>